<svg xmlns="http://www.w3.org/2000/svg" viewBox="0 0 150 150"><g color="#000" font-family="sans-serif" font-weight="400" white-space="normal"><path fill="#28588c" style="line-height:normal;font-variant-ligatures:normal;font-variant-position:normal;font-variant-caps:normal;font-variant-numeric:normal;font-variant-alternates:normal;font-feature-settings:normal;text-indent:0;text-align:start;text-decoration-line:none;text-decoration-style:solid;text-decoration-color:#000;text-transform:none;text-orientation:mixed;shape-padding:0;isolation:auto;mix-blend-mode:normal" d="M13.656 3.574a9 9 0 0 0-7.734 13.914S31.038 58.501 75.15 58.46c44.095-.042 68.95-41.006 68.95-41.006a9 9 0 1 0-15.262-9.545s-21.1 32.52-53.705 32.551C42.547 40.49 21.14 7.873 21.14 7.873a9 9 0 0 0-7.485-4.299z" overflow="visible"/><path fill="#0e96d3" style="line-height:normal;font-variant-ligatures:normal;font-variant-position:normal;font-variant-caps:normal;font-variant-numeric:normal;font-variant-alternates:normal;font-feature-settings:normal;text-indent:0;text-align:start;text-decoration-line:none;text-decoration-style:solid;text-decoration-color:#000;text-transform:none;text-orientation:mixed;shape-padding:0;isolation:auto;mix-blend-mode:normal" d="M13.045 3.121a9.69 9.69 0 0 0-8.814 14.143l62.114 124.262a9.69 9.69 0 0 0 17.333 0l62.116-124.262A9.69 9.69 0 1 0 128.458 8.6L83.155 99.232a9.69 9.69 0 0 1-16.27.032L21.567 8.6a9.69 9.69 0 0 0-8.522-5.479z" overflow="visible"/></g></svg>