<svg version="1" xmlns="http://www.w3.org/2000/svg" width="1402.667" height="1402.667" viewBox="0 0 1052.000000 1052.000000"><path d="M258.3 235.3c-16.5 5.8-26.7 19.9-26.6 36.5.1 10.2.3 10.7 7.7 25.7 3.8 7.7 7 14.2 7 14.5.1.3.4 1 .8 1.5.6 1.1 18.1 35.4 39.1 77.1 5.9 11.6 10.7 21.6 10.7 22.2 0 .6.3 1.2.8 1.4.4.1 3 4.8 5.7 10.3 2.8 5.5 5.5 10.3 6 10.7.6.4.7.8.3.8-.5 0 .9 3.3 3.1 7.2 3.9 7.5 9 17.4 9.3 18.2 0 .3 2.4 5 5.2 10.5 4.8 9.4 15.3 30 60.9 120.3 10.8 21.2 20.1 39.6 20.6 40.7.6 1.2 1.5 3 2.1 4 .5 1.1 3.2 6.5 6 12s5 10.4 5 10.7c-.1.4.2 1 .7 1.3.4.3 8.9 16.8 18.8 36.6s18.2 36.2 18.5 36.5c.3.3 7.9 15.3 17 33.3 16.6 33 20.6 39.4 27 43.8 16.9 11.5 36.8 10 50.8-4 4.3-4.3 13.9-20.3 15.1-25.1.2-.8.8-1.8 1.3-2.1.5-.3 1-1.2 1.2-2 .1-.8 1.7-4.2 3.4-7.6 1.8-3.5 3.3-6.6 3.4-7 .1-.5.6-1.3 1-1.8.5-.6 15.5-30.5 33.5-66.5s33.2-65.8 33.7-66.2c.6-.4.8-.8.4-.8-.9 0 9.2-20.3 10.6-21.2.6-.4.8-.8.4-.8-.7 0 25.5-52.7 27.2-54.7.6-.7 1-1.5 1-1.8-.1-1 19.5-40 20.3-40.3.4-.2.7-.9.7-1.5 0-1.3 20.3-42.2 21.9-44.1.5-.6 1-1.4 1-1.9.1-1.2 15-30.8 16.2-32.4.6-.7.9-1.3.6-1.3-.3 0 1.2-3.2 3.4-7.1 2.1-4 3.9-7.4 3.9-7.7 0-.5 6.9-14.4 8.8-17.7.6-1.1 4.1-8 7.7-15.4 3.5-7.3 6.9-13.9 7.6-14.7.6-.7 1.2-1.9 1.3-2.6.1-.7 3.3-7.4 7.2-14.8 3.8-7.4 7.3-14.6 7.8-16 .5-1.4 1.2-2.7 1.5-3 .6-.5 9.4-18 9.6-19 .1-.6 5.9-11.9 8.5-16.5 1.1-1.9 1.7-3.5 1.4-3.5-.4 0-.2-.6.4-1.3 2-2.4 3.9-11.3 3.8-17.2-.4-12.2-6-23.1-15.9-30.5-12.2-9.3-29.9-10.2-43.3-2.4-8 4.7-12.5 11.1-24.9 35.9-8.8 17.4-13.2 25.1-16.9 29.3-10.5 11.8-33 33.2-37.5 35.6-.9.5-2.1 1.4-2.6 2.1-1.3 1.6-25.1 17.8-29.8 20.2-9.1 4.8-28.5 14.1-30.7 14.8-1.4.4-2.9 1.1-3.5 1.5-1.2.9-22.1 7.7-25.5 8.3-1.4.3-5.2 1.2-8.5 2-5.6 1.5-9.1 2.1-17.5 3.3-1.9.3-4.8.7-6.5.9-10.4 1.6-34.5 2.5-34.5 1.4 0-.4-1.3-.4-2.9.1-1.6.4-3.1.7-3.3.5-.2-.2-3.5-.6-7.3-1-3.9-.3-8.3-.8-10-1-1.6-.3-5-.7-7.5-1-11.8-1.5-33-7.2-49-13.2-14.1-5.3-40.9-18.5-41.8-20.6-.2-.4-.8-.7-1.3-.7-.8 0-18.7-11.7-19.9-13-.3-.3-2.9-2.3-5.7-4.5-2.9-2.1-5.3-4.2-5.3-4.6 0-.4-.8-1-1.7-1.3-3.8-1.2-32.3-29.2-40.9-40.1-1.8-2.2-7.6-12.7-12.9-23.3-9.5-18.8-16.7-29.2-20.1-29.2-.8 0-1.4-.4-1.4-.9 0-1-8.5-5.3-11.5-5.8-8.5-1.4-16.3-1.1-22.2 1zm145.3 193.8c7.3 3.5 29 11.9 31.8 12.3.6.1 1.6.4 2.1.8 1.3.8 7.4 2 7.8 1.6.2-.2 1 .2 1.8.8.8.6 3.2 1.5 5.4 1.9 2.2.5 4.5 1 5 1.1.6.2 2.3.6 3.9.9 1.6.3 3.2.8 3.6 1 .8.5 18.2 3.5 24 4.2 2.5.3 5.9.6 7.5.8 14 1.6 45.7 2.7 47.9 1.6.5-.2 3.4-.5 6.5-.6 5.1-.2 11.3-.9 19.1-2 1.4-.2 4.3-.6 6.5-1 2.3-.3 5.2-.8 6.5-1 1.4-.3 3.9-.8 5.5-1.1 1.7-.3 6.6-1.4 11-2.5 4.4-1.2 8.7-2.2 9.5-2.4 7.5-1.6 35.5-11.9 46.3-17 2.6-1.3 4.7-2.1 4.7-1.9 0 .2-2.5 5.3-5.5 11.4-3.1 6-5.6 11.2-5.5 11.5 0 .3-.9 2.1-2.1 4.1-3.7 6.6-10.3 19.9-10.5 21.2-.1.7-.7 1.8-1.2 2.5-.6.7-6.9 13.1-14.1 27.7-7.3 14.6-13.6 27.2-14.1 28-1.4 2.4-11 22-11.1 22.8 0 .4-.5 1.3-1.1 1.9-1.2 1.5-6.8 13-6.7 14 0 .3-.3.9-.8 1.2-.4.3-6.9 12.7-14.3 27.5-9.4 19-14.7 28.3-17.6 31.5-4.6 5-11.7 9.3-17.4 10.6-1.9.5-4.2 1-5 1.2-3.3.8-7 .9-7 .2 0-.4-.9-.5-2-.2-7.4 1.9-25.7-8.7-30.1-17.6-.7-1.4-2-3.4-2.9-4.5-.8-1-1.4-2-1.2-2.2.2-.4-.4-1.8-14.7-29.8-5-9.8-9.1-18.4-9.1-19.1 0-.7-.4-1.5-.9-1.7-.4-.2-5.2-9.1-10.6-19.8-5.4-10.7-17.9-35.5-27.8-55-25.2-49.8-24.8-48.9-24.6-49.6 0-.4-.3-1-.8-1.3-.7-.5-3.5-5.8-3.7-7.1-.1-.3-.6-1.2-1.1-2-.5-.8-2-3.4-3.2-5.8l-2.2-4.3 2.2.7c1.2.4 5.8 2.4 10.3 4.5z"/></svg>