<svg viewBox="0 0 150 150" xmlns="http://www.w3.org/2000/svg"><path d="m13.656 3.574a9 9 0 0 0 -7.734 13.914s25.116 41.013 69.228 40.972c44.095-.042 68.95-41.006 68.95-41.006a9 9 0 1 0 -15.262-9.545s-21.1 32.52-53.705 32.551c-32.586.03-53.993-32.587-53.993-32.587a9 9 0 0 0 -7.485-4.299z" fill="#28588c"/><path d="m13.045 3.121a9.69 9.69 0 0 0 -8.814 14.143l62.114 124.262a9.69 9.69 0 0 0 17.333 0l62.116-124.262a9.69 9.69 0 1 0 -17.336-8.664l-45.303 90.632a9.69 9.69 0 0 1 -16.27.032l-45.318-90.664a9.69 9.69 0 0 0 -8.522-5.479z" fill="#0e96d3"/></svg>